# xmcd
#
# Track frame offsets:
#	150
#	30964
#	51439
#	67723
#	95265
#	120273
#	134838
#	165955
#	183363
#	201688
#	222901
#	252720
#	268258
#	289068
#
# Disc length: 4123 seconds
#
# Revision: 0
# Processed by: cddbd v1.5.2PL0 Copyright (c) Steve Scherf et al.
# Submitted via: EasyCDDAExtractor 16.0.9.1
#
DISCID=d310190e
DTITLE=Manal - En Vivo en RED HOUSE
DYEAR=2016
DGENRE=Blues
TTITLE0=Informe De Un dia
TTITLE1=No Pibe
TTITLE2=Avenida Rivadavia
TTITLE3=Que Pena Me Das
TTITLE4=Si No Hablo De Mi
TTITLE5=Tengo Algo En Mi Mente Para Vos
TTITLE6=Todo El dia Me Pregunto
TTITLE7=No Hay Tiempo De Mas
TTITLE8=Para Ser Un Hombre Mas
TTITLE9=Doña Laura (con Gustavo chizzo Napoli)
TTITLE10=Avellaneda Blues
TTITLE11=Necesito Un Amor
TTITLE12=Una Casa Con Diez Pinos
TTITLE13=Jugo De tomate
EXTD=
EXTT0=
EXTT1=
EXTT2=
EXTT3=
EXTT4=
EXTT5=
EXTT6=
EXTT7=
EXTT8=
EXTT9=
EXTT10=
EXTT11=
EXTT12=
EXTT13=
PLAYORDER=
